<svg xmlns="http://www.w3.org/2000/svg" viewBox="-240 -240 480 480">
  <path fill="url(#a)" d="M-130-140h260a10 10 0 0 1 10 10v260a10 10 0 0 1-10 10H46c-3 0-5-3-3-6s9-10 9-30c0-21-16-51-52-51s-52 30-52 51c0 20 7 27 9 30s0 6-3 6h-84a10 10 0 0 1-10-10V46c0-3 3-5 6-3s10 9 30 9c21 0 51-16 51-52s-30-52-51-52c-20 0-27 7-30 9s-6 0-6-3v-84a10 10 0 0 1 10-10"/>
  <defs>
    <linearGradient id="a" gradientTransform="rotate(70)">
      <stop offset="5%" stop-color="#1fbf67"/>
      <stop offset="95%" stop-color="#00b068"/>
    </linearGradient>
  </defs>
  <path fill="#fff" d="M-37-10a1 1 0 0 1 86 0z"/>
  <path d="M-27-10a1 1 0 0 1 66 0z"/>
  <circle cx="19" cy="-23" r="5" fill="#fff">
    <animate attributeName="r" dur="4s" repeatCount="indefinite" values="6;4;6"/>
  </circle>
  <circle cx="29" cy="-33" r="10" fill="#fff">
    <animate attributeName="r" dur="4s" repeatCount="indefinite" values="9;11;9"/>
  </circle>
  <path fill="#fff" d="M63-10a1 1 0 0 1 86 0z"/>
  <path d="M73-10a1 1 0 0 1 66 0z"/>
  <circle cx="119" cy="-23" r="5" fill="#fff">
    <animate attributeName="r" dur="4s" repeatCount="indefinite" values="6;4;6"/>
  </circle>
  <circle cx="129" cy="-33" r="10" fill="#fff">
    <animate attributeName="r" dur="4s" repeatCount="indefinite" values="9;11;9"/>
  </circle>
  <path fill="none" stroke="#000" stroke-linecap="round" stroke-width="6" d="M36 6a1 1 0 0 0 40 0"/>
  <style>#b{fill:#1a3e32}@media(prefers-color-scheme:dark){#b{fill:#ccefe1}}</style>
  <path id="b" d="M-81-100q34-17 104 15t115-4 10-109q-7-15-17-20-5-2-6 2-9 36-24 48-2 2-3-1-17-53-75-68-9-2-5 5 6 12 0 47-1 2-4 1-97-35-124 41-1 3-3 0-8-13-11-39-1-7-5-3-14 15-13 43 0 4-3 3-15-2-26 9-6 7 0 7t23 18q2 2 0 4-15 14-2 37 11 17 10 25 38-20 68-1 7 6 9-5 3-18-18-55"/>
</svg>