<svg id="dark" xmlns="http://www.w3.org/2000/svg" viewBox="-240 -240 480 480">
  <style>:root{--f:#eee}@media(prefers-color-scheme:light){#dark:not(:target){--f:#3c3c3f}}</style>
  <path fill="url(#a)" d="M-130-140h86c7 0 10-9 8-13s-10-12-10-28c0-22 19-46 46-46s46 24 46 46c0 16-8 24-10 28s1 13 8 13h86a10 10 0 0 1 10 10v260a10 10 0 0 1-10 10h-260a10 10 0 0 1-10-10V46c0-3 3-5 6-3s10 9 30 9c21 0 51-16 51-52s-30-52-51-52c-20 0-27 7-30 9s-6 0-6-3v-84a10 10 0 0 1 10-10"/>
  <defs>
    <linearGradient id="a" gradientTransform="rotate(70)">
      <stop offset="5%" stop-color="#ccc"/>
      <stop offset="95%" stop-color="#aaa"/>
    </linearGradient>
    <mask id="b">
      <path fill="#fff" d="M-240-240h480v480h-480z"/>
      <path d="M-46 0c0-22 19-46 46-46S46-22 46 0"/>
    </mask>
  </defs>
  <circle cx="10" cy="50" r="44" fill="#fff"/>
  <path stroke="#000" stroke-linecap="round" stroke-width="10" d="m-5 35 30 30m-30 0 30-30"/>
  <circle cx="110" cy="50" r="44" fill="#fff"/>
  <path stroke="#000" stroke-linecap="round" stroke-width="10" d="m95 35 30 30m-30 0 30-30"/>
  <path stroke="#000" stroke-linecap="round" stroke-width="4" d="M20 105h80"/>
  <g mask="url(#b)" transform="translate(0 -181)">
    <animateTransform additive="sum" attributeName="transform" calcMode="spline" dur="40s" keySplines="0.4 0 0.6 1; 0.4 0 0.6 1" repeatCount="indefinite" type="rotate" values="-4;4;-4"/>
    <ellipse fill="none" stroke="var(--f)" stroke-width="6" rx="140" ry="20"/>
    <path d="m-20-6 14-1 6-13L6-7l14 1L9 4l3 14-12-7-12 7 3-14z" fill="var(--f)">
      <animateMotion begin="-0s" dur="124s" path="M 170 0 a 85 20 0 0 1 -340 0 a 85 16 0 0 1 340 0" repeatCount="indefinite"/>
      <animateTransform additive="sum" attributeName="transform" begin="-0s" dur="124s" repeatCount="indefinite" type="scale" values="1;1.3;1;0.6;1"/>
      <animateTransform additive="sum" attributeName="transform" begin="-0s" dur="64s" from="0 8 8" repeatCount="indefinite" to="360 8 8" type="rotate"/>
    </path>
    <path d="m-20-6 14-1 6-13L6-7l14 1L9 4l3 14-12-7-12 7 3-14z" fill="var(--f)">
      <animateMotion begin="-40s" dur="124s" path="M 170 0 a 85 20 0 0 1 -340 0 a 85 16 0 0 1 340 0" repeatCount="indefinite"/>
      <animateTransform additive="sum" attributeName="transform" begin="-40s" dur="124s" repeatCount="indefinite" type="scale" values="1;1.3;1;0.6;1"/>
      <animateTransform additive="sum" attributeName="transform" begin="-40s" dur="64s" from="0 8 8" repeatCount="indefinite" to="360 8 8" type="rotate"/>
    </path>
    <path d="m-20-6 14-1 6-13L6-7l14 1L9 4l3 14-12-7-12 7 3-14z" fill="var(--f)">
      <animateMotion begin="-84s" dur="124s" path="M 170 0 a 85 20 0 0 1 -340 0 a 85 16 0 0 1 340 0" repeatCount="indefinite"/>
      <animateTransform additive="sum" attributeName="transform" begin="-84s" dur="124s" repeatCount="indefinite" type="scale" values="1;1.3;1;0.6;1"/>
      <animateTransform additive="sum" attributeName="transform" begin="-84s" dur="64s" from="0 8 8" repeatCount="indefinite" to="360 8 8" type="rotate"/>
    </path>
  </g>
</svg>