<svg id="dark" xmlns="http://www.w3.org/2000/svg" viewBox="-240 -240 480 480">
  <path fill="url(#a)" d="M-130-140h86c7 0 10-9 8-13s-10-12-10-28c0-22 19-46 46-46s46 24 46 46c0 16-8 24-10 28s1 13 8 13h86a10 10 0 0 1 10 10v84c0 3-3 5-6 3s-10-9-30-9C83-52 53-36 53 0s30 52 51 52c20 0 27-7 30-9s6 0 6 3v84a10 10 0 0 1-10 10H44c-7 0-10 9-8 13s10 12 10 28c0 22-19 46-46 46s-46-24-46-46c0-16 8-24 10-28s-1-13-8-13h-86a10 10 0 0 1-10-10V46c0-3 3-5 6-3s10 9 30 9c21 0 51-16 51-52s-30-52-51-52c-20 0-27 7-30 9s-6 0-6-3v-84a10 10 0 0 1 10-10"/>
  <defs>
    <linearGradient id="a" gradientTransform="rotate(70)">
      <stop offset="5%" stop-color="#ffd100"/>
      <stop offset="95%" stop-color="#feb400"/>
    </linearGradient>
    <clipPath id="b">
      <path d="M0-56h22a3 3 0 0 1 3 3 26 26 0 0 1-51 0 3 3 0 0 1 3-3z"/>
    </clipPath>
  </defs>
  <path fill="none" stroke="#000" stroke-linecap="round" stroke-width="6" d="M-92-68a42 42 0 0 1 84 0m16 0a42 42 0 0 1 84 0M-87-89l-15-10m24-1-11-14m23 6-4-15M87-89l15-10m-24-1 11-14m-23 6 4-15"/>
  <path d="M-30-60h60v40h-60z" clip-path="url(#b)"/>
  <path fill="#fff6cc" d="M-22-37q10-15 22-5 12-10 22 5L0-24z" clip-path="url(#b)"/>
</svg>
