<svg xmlns="http://www.w3.org/2000/svg" viewBox="0 0 80 70">
  <path d="m71 20.7-.4-.5-.5-.5-.5-.5-.5-.5-.5-.5-.5-.5-.5-.5a26.5 26.5 0 0 1 7.9 18.5c0 16.6-16.8 30-37.5 30-11.6 0-22-4.2-28.8-10.8l.5.5.5.5.5.5.5.5.5.5.5.5.5.5A41.2 41.2 0 0 0 42 69.8c20.7 0 37.5-13.5 37.5-30 0-7.1-3-13.8-8.4-19Z"/>
  <path d="M73 35.7c0 15.2-15.7 27.5-35 27.5S3 51 3 35.7C3 26.3 9 17.9 18.2 13S33.2 3 38 3s9 4.1 19.8 10C67 18 73 26.3 73 35.7Z" style="fill:#fbf0df"/>
  <path d="M73 35.7a21.7 21.7 0 0 0-.8-5.8c-2.7 33.3-43.4 35-59.3 25A40 40 0 0 0 38 63.2c19.3 0 35-12.3 35-27.5Z" data-name="Bottom Shadow" style="fill:#f6dece"/>
  <path d="M24.5 11.2C29 8.5 35 3.5 40.8 3.5A9.3 9.3 0 0 0 38 3a19 19 0 0 0-8.3 3.1l-3.5 2.2-8 4.7C8.7 18 3 26.6 3 35.7v1.2c6-21.4 17-23 21.5-25.7Z" data-name="Light Shine" style="fill:#fffefc"/>
  <path d="M35.1 5.5A16.4 16.4 0 0 1 29.5 18c-.3.3 0 .7.3.6 3.4-1.3 8-5.2 6-13.2 0-.4-.7-.3-.7.1Zm2.3 0A16.2 16.2 0 0 1 39 19c-.1.3.3.7.6.4 2.1-2.8 4-8.4-1.7-14.4-.3-.3-.7.1-.5.5Zm2.8-.1A16.4 16.4 0 0 1 47 17a.3.3 0 0 0 .7.1c.9-3.5.3-9.4-7.2-12.5-.4-.2-.7.4-.4.6ZM21.6 15.8a17 17 0 0 0 10.5-9c.1-.4.7-.3.6.1-1.7 8-7.5 9.7-11.1 9.5-.4 0-.4-.5 0-.6Z" style="fill:#ccbea7;fill-rule:evenodd"/>
  <path d="M38 65.8C17.3 65.8.5 52.3.5 35.6c0-10 6.2-19.3 16.5-25 3-1.5 5.6-3.1 7.9-4.5L28.5 4C32 1.9 35 .5 38 .5s5.6 1.2 8.9 3.1c1 .6 2 1.2 3 2l9 5.2c10.4 5.6 16.6 14.9 16.6 24.9 0 16.6-16.8 30-37.5 30ZM38 3a19 19 0 0 0-8.3 3.1l-3.5 2.2-8 4.7C8.7 18 3 26.6 3 35.7c0 15.2 15.7 27.5 35 27.5S73 51 73 35.8c0-9-5.7-17.6-15.2-22.7a110 110 0 0 1-9.1-5.4l-3-1.8C42.7 4 40.4 3 38 3Z"/>
  <path d="M45 43a9 9 0 0 1-2.9 4.7 6.8 6.8 0 0 1-4 1.9 6.8 6.8 0 0 1-4.1-1.9 9 9 0 0 1-2.9-4.7.7.7 0 0 1 .8-.8h12.4a.7.7 0 0 1 .8.8Z" data-name="Background" style="fill:#b71422"/>
  <path d="M34 47.8a7 7 0 0 0 4.1 1.9 7 7 0 0 0 4.1-2 10.6 10.6 0 0 0 1-1 6.8 6.8 0 0 0-4.9-2.3 6.2 6.2 0 0 0-5 2.8l.7.6Z" data-name="Background" style="fill:#ff6164"/>
  <path d="M34.2 47a5.4 5.4 0 0 1 4.1-2 6 6 0 0 1 4 1.6l.7-.8a7 7 0 0 0-4.7-1.9 6.4 6.4 0 0 0-4.9 2.4 9.5 9.5 0 0 0 .8.7Z" data-name="Outline"/>
  <path d="M38 50.2a7.4 7.4 0 0 1-4.4-2 9.5 9.5 0 0 1-3-5 1.2 1.2 0 0 1 .2-1 1.4 1.4 0 0 1 1.1-.6h12.4a1.4 1.4 0 0 1 1 .5 1.2 1.2 0 0 1 .3 1 9.5 9.5 0 0 1-3 5 7.4 7.4 0 0 1-4.5 2Zm-6-7.4h-.3a8.3 8.3 0 0 0 2.7 4.5 6.2 6.2 0 0 0 3.7 1.7 6.3 6.3 0 0 0 3.6-1.7 8.3 8.3 0 0 0 2.8-4.4.2.2 0 0 0-.2 0Z" data-name="Outline"/>
  <ellipse cx="53.2" cy="40.2" data-name="Right Blush" rx="5.8" ry="3.4" style="fill:#febbd0"/>
  <ellipse cx="22.9" cy="40.2" data-name="Left Bluch" rx="5.8" ry="3.4" style="fill:#febbd0"/>
  <path d="M25.7 38.8a5.5 5.5 0 1 0-5.5-5.5 5.5 5.5 0 0 0 5.5 5.5Zm24.8 0a5.5 5.5 0 1 0-5.5-5.5 5.5 5.5 0 0 0 5.5 5.5Z" style="fill-rule:evenodd"/>
  <path d="M24 33.6a2 2 0 1 0-2-2 2 2 0 0 0 2 2Zm24.8 0a2 2 0 1 0-2-2 2 2 0 0 0 2 2Z" style="fill:#fff;fill-rule:evenodd"/>
</svg>
