<svg xmlns="http://www.w3.org/2000/svg" viewBox="0 0 24 24">
  <path fill="#5FA04E" d="M12 24c-.3 0-.6 0-1-.2L8.2 22c-.4-.2-.2-.3 0-.4.5-.2.7-.2 1.3-.6h.2l2.3 1.4h.2l8.8-5 .2-.3V6.9s0-.2-.2-.2l-8.8-5c0-.1-.2-.1-.2 0L3 6.6l-.2.2V17s0 .2.2.2l2.4 1.4c1.3.7 2-.1 2-.9v-10c0-.2.2-.3.3-.3H9c.1 0 .2.1.2.3v10c0 1.8-1 2.8-2.6 2.8-.5 0-.9 0-2-.6l-2.3-1.3c-.6-.4-1-1-1-1.6V6.9c0-.6.4-1.3 1-1.6l8.8-5a2 2 0 0 1 1.8 0l8.8 5c.6.3 1 1 1 1.6v10.2c0 .6-.4 1.2-1 1.6l-8.8 5-.9.3zm7.1-10c0-2-1.3-2.4-4-2.8-2.7-.3-3-.5-3-1.2 0-.5.2-1.2 2.3-1.2 1.8 0 2.4.4 2.7 1.6 0 .1.1.2.3.2h1.3v-.3c-.1-2-1.5-3-4.3-3-2.5 0-4 1-4 2.8 0 2 1.4 2.5 3.9 2.7 2.8.3 3 .7 3 1.3 0 1-.7 1.4-2.6 1.4-2.3 0-2.8-.6-3-1.8 0-.1-.1-.2-.3-.2h-1c-.2 0-.3.1-.3.3 0 1.4.8 3.2 4.6 3.2 2.8 0 4.4-1 4.4-3z"/>
</svg>
