<svg xmlns="http://www.w3.org/2000/svg" viewBox="0 0 128 128">
  <linearGradient id="a" x1="295.8" x2="295.8" y1="274" y2="272.9" gradientTransform="matrix(112 0 0 -112 -33069.5 30695)" gradientUnits="userSpaceOnUse">
    <stop offset="0" stop-color="#19D7FF"/>
    <stop offset="1" stop-color="#1E64F0"/>
  </linearGradient>
  <circle cx="64" cy="64" r="62.5" fill="url(#a)"/>
  <path fill="#fff" d="M63.5 7.6v9.2h1V7.6Zm-3.9.3h-1l.4 5h1zm8.8 0-.4 5h1l.4-5zm-13.7.5-1 .2 1.6 9h1zm18.6 0-1.6 9.1 1 .2 1.6-9.1zM50 9.4l-1 .3 1.3 4.8 1-.2Zm28.2 0-1.3 4.9 1 .2L79 9.7zm-32.8 1.4-1 .4 3.1 8.7 1-.4zm37.4 0-3 8.7.9.4 3-8.7zm4.6 1.9-2.2 4.6 1 .4 2.2-4.6zm-46.6 0-1 .4 2.1 4.6 1-.4zM36.3 15l-.8.4 4.6 8 .8-.4zm55.4 0L87 23l.8.4 4.6-8zM32 17.5l-.8.6 2.9 4 .8-.5zm63.8 0-3 4.1 1 .6 2.8-4.1zm-67.6 3-.8.6 6 7 .7-.6zm71.4 0-5.9 7 .8.6 5.9-7zm-75.2 3.2-.6.8 3.6 3.5.6-.8zm-3.3 3.6-.6.8 7 5.9.7-.8zm85.6 0-7.1 6 .6.7 7.1-6zm-88.6 3.9-.6.8 4.2 3 .6-1zm91.6 0-4.2 2.9.6.8 4.2-2.9zm-94.3 4.2-.4.8 8 4.6.4-.8zm97 0-8 4.6.4.8 8-4.6zm-99.2 4.2-.4 1 4.5 2 .4-.9zm101.4 0-4.5 2.1.4 1 4.5-2.1zM11.4 44.1l-.4 1 8.6 3.2.4-1zm105.2 0-8.6 3.2.4 1L117 45zM9.8 48.8l-.2 1 4.9 1.3.2-1zm108.4 0-5 1.3.3 1 5-1.3zM8.7 53.6l-.2 1 9.1 1.6.2-1zm110.6 0-9 1.6v1l9.2-1.6zM8 58.4v1l5 .5v-1zm112 0-5 .5v1l5-.5zm-112.2 5v1H17v-1zm103.2 0v1h9.2v-1zm-98 4.4-5 .5v1l5-.5zm102 0v1l5 .5v-1zm-97.4 3.7-9 1.6v1l9.2-1.6zm92.8 0-.2 1 9.1 1.6.2-1zm-96 5.1L9.7 78l.2 1 5-1.3zm99.1 0-.2 1 4.9 1.3.2-1zm-93.9 2.8L11 82.6l.4 1 8.6-3.2zm88.8 0-.4 1 8.6 3.2.4-1zm-91 5.6-4.5 2.1.4 1 4.5-2.1zm93.2 0-.4 1 4.5 2 .4-.9zm-87.5 2-8 4.6.4.8 8-4.6zm81.8 0-.4.8 8 4.6.4-.8zm-83 5.8-4.3 2.9.6.8 4.2-2.9zm84.3 0-.6.8 4.2 3 .6-1zm-78.5 1-7.1 5.8.6.8 7.1-6zm72.6 0-.6.7 7 5.9.7-.8zm-66.9 5.8-5.9 7 .8.6 5.9-7zm61.2 0-.8.6 6 7 .7-.6zm6 .1-.7.8 3.6 3.5.6-.8zM40 104.3l-4.6 8 .8.5 4.6-8zm47.8 0-.8.6 4.6 7.9.8-.6zm-53.7 1.2-3 4.1 1 .6L35 106zm59.6 0-.8.6 2.9 4 .8-.5zm-46.4 2.3-3 8.7.9.4 3-8.7zm33.2 0-1 .4 3.1 8.7 1-.4zM55.3 110l-1.6 9.1 1 .2 1.6-9.1zm17.4 0-1 .2 1.6 9h1zM42 110l-2.3 4.6 1 .4 2.1-4.5zm44 0-.9.5 2.3 4.5.8-.4Zm-22.5.9v9.2h1v-9.2zm-13.3 2.3L49 118l1 .2 1.3-4.9zm27.6 0-1 .2 1.3 5 1-.3zM59 114.9l-.4 5h1l.4-5zm10 0h-1l.4 5h1z" color="#000" style="-inkscape-stroke:none"/>
  <path fill="red" d="m106.7 21-48 37.7 5.2 5.2z"/>
  <path fill="#D01414" d="m63.9 63.9 6 6L106.7 21z"/>
  <path fill="#fff" d="m58.7 58.7-37.7 48 42.9-42.8z"/>
  <path fill="#ACACAC" d="m21 106.7 48.9-36.8-6-6z"/>
</svg>
