<svg xmlns="http://www.w3.org/2000/svg" viewBox="0 0 590 120">
  <style>#i{fill:#202124}@media(prefers-color-scheme:dark){#i{fill:#fff}}</style>
  <mask id="a" width="63" height="103" x="0" y="17" maskUnits="userSpaceOnUse" style="mask-type:luminance">
    <path fill="#fff" d="M31.6 64.3 62 116c1 1.7-.2 3.9-2.2 3.9H34c-1.4 0-2.6-.7-3.3-2L.5 66.4a3.9 3.9 0 0 1 0-3.9l25-43.6a2 2 0 0 1 3.5 0l13.3 22.8c.6 1.2.7 2.7 0 3.8l-10.7 19Z"/>
  </mask>
  <g mask="url(#a)">
    <path fill="#00C6FE" d="m-.6 64.3 27.8-48.5 16.2 27.7-11.8 20.8"/>
    <path fill="#78F185" d="M80.2 36.6 64 8.8H31.8l32.4 55.5"/>
    <path fill="#006BEC" d="M31.6 64.3 64.2 120H31.8L-.6 64.3"/>
  </g>
  <mask id="b" width="75" height="57" x="33" y="8" maskUnits="userSpaceOnUse" style="mask-type:luminance">
    <path fill="#fff" d="M66.4 64.3h28c1.3 0 2.6-.7 3.3-2l9.4-16.9a4 4 0 0 0 0-3.8L93.8 19a2 2 0 0 0-3.6 0l-10 17.7-15-25.9a4 4 0 0 0-3.4-2l-25.5.1c-2 0-3.2 2.2-2.2 3.9l29 49.7a4 4 0 0 0 3.3 2Z"/>
  </mask>
  <g mask="url(#b)">
    <path fill="#00C6FE" d="m-.6 64.3 27.8-48.5 16.2 27.7-11.8 20.8"/>
    <path fill="#78F185" d="M80.2 36.6 64 8.8H31.8l32.4 55.5"/>
    <path fill="#FFD500" d="M161.4 64.3 128.8 8.8H96.4l32.4 55.5h32.6Z"/>
    <path fill="#006BEC" d="M31.6 64.3 64.2 120H31.8L-.6 64.3"/>
    <path fill="#00B367" d="M64.2 64.3h32.4l11.6-20.8L92 15.8"/>
    <path fill="#F76900" d="M128.8 64.3 96.4 120h32.4l32.6-55.6"/>
  </g>
  <mask id="c" width="63" height="112" x="98" y="8" maskUnits="userSpaceOnUse" style="mask-type:luminance">
    <path fill="#fff" d="M128.8 64.3 98.7 116c-1 1.7.2 3.9 2.2 3.9h25.7c1.4 0 2.7-.8 3.3-2l30.3-51.6c.7-1.2.7-2.7 0-3.9L130 10.7c-.6-1.2-2-2-3.3-2H101c-2 0-3.2 2.2-2.2 4l30.1 51.6Z"/>
  </mask>
  <g mask="url(#c)">
    <path fill="#FFD500" d="M161.4 64.3 128.8 8.8H96.4l32.4 55.5h32.6Z"/>
    <path fill="#FF6672" d="M170.2 64.3 138 8.8h32.3l32.4 55.5"/>
    <path fill="#00B367" d="M64.2 64.3h32.4l11.6-20.8L92 15.8"/>
    <path fill="#F76900" d="M128.8 64.3 96.4 120h32.4l32.6-55.6"/>
    <path fill="#A31460" d="M202.6 64.3 170.2 120H138l32.3-55.6"/>
  </g>
  <mask id="d" width="64" height="112" x="139" y="8" maskUnits="userSpaceOnUse" style="mask-type:luminance">
    <path fill="#fff" d="M142.3 8.8H168c1.4 0 2.7.7 3.4 1.9l30.1 51.7c.7 1.2.7 2.7 0 3.9l-30.1 51.6a4 4 0 0 1-3.4 2h-25.7c-2 0-3.2-2.2-2.2-4l30.2-51.6L140 12.7c-1-1.8.2-4 2.2-4Z"/>
  </mask>
  <g mask="url(#d)">
    <path fill="#FFD500" d="M161.4 64.3 128.8 8.8H96.4l32.4 55.5h32.6Z"/>
    <path fill="#FF6672" d="M170.3 64.3 137.9 8.8h32.4l32.3 55.5"/>
    <path fill="#F76900" d="M128.8 64.3 96.4 120h32.4l32.6-55.6"/>
    <path fill="#A31460" d="M202.6 64.3 170.3 120h-32.4l32.4-55.6"/>
  </g>
  <mask id="e" width="63" height="103" x="0" y="17" maskUnits="userSpaceOnUse" style="mask-type:luminance">
    <path fill="#fff" d="M31.6 64.3 62 116c1 1.7-.2 3.9-2.2 3.9H34c-1.4 0-2.6-.7-3.3-2L.5 66.4a3.9 3.9 0 0 1 0-3.9l25-43.6a2 2 0 0 1 3.5 0l13.3 22.8c.6 1.2.7 2.7 0 3.8l-10.7 19Z"/>
  </mask>
  <g mask="url(#e)">
    <path fill="#00C6FE" d="m-.6 64.3 27.8-48.5 16.2 27.7-11.8 20.8"/>
    <path fill="#78F185" d="M80.2 36.6 64 8.8H31.8l32.4 55.5"/>
    <path fill="#006BEC" d="M31.6 64.3 64.2 120H31.8L-.6 64.3"/>
  </g>
  <mask id="f" width="75" height="57" x="33" y="8" maskUnits="userSpaceOnUse" style="mask-type:luminance">
    <path fill="#fff" d="M66.4 64.3h28c1.3 0 2.6-.7 3.3-2l9.4-16.9a4 4 0 0 0 0-3.8L93.8 19a2 2 0 0 0-3.6 0l-10 17.7-15-25.9a4 4 0 0 0-3.4-2l-25.5.1c-2 0-3.2 2.2-2.2 3.9l29 49.7a4 4 0 0 0 3.3 2Z"/>
  </mask>
  <g mask="url(#f)">
    <path fill="#00C6FE" d="m-.6 64.3 27.8-48.5 16.2 27.7-11.8 20.8"/>
    <path fill="#78F185" d="M80.2 36.6 64 8.8H31.8l32.4 55.5"/>
    <path fill="#FFD500" d="M161.4 64.3 128.8 8.8H96.4l32.4 55.5h32.6Z"/>
    <path fill="#006BEC" d="M31.6 64.3 64.2 120H31.8L-.6 64.3"/>
    <path fill="#00B367" d="M64.2 64.3h32.4l11.6-20.8L92 15.8"/>
    <path fill="#F76900" d="M128.8 64.3 96.4 120h32.4l32.6-55.6"/>
  </g>
  <mask id="g" width="63" height="112" x="98" y="8" maskUnits="userSpaceOnUse" style="mask-type:luminance">
    <path fill="#fff" d="M128.8 64.3 98.7 116c-1 1.7.2 3.9 2.2 3.9h25.7c1.4 0 2.7-.8 3.3-2l30.3-51.6c.7-1.2.7-2.7 0-3.9L130 10.7c-.6-1.2-2-2-3.3-2H101c-2 0-3.2 2.2-2.2 4l30.1 51.6Z"/>
  </mask>
  <g mask="url(#g)">
    <path fill="#FFD500" d="M161.4 64.3 128.8 8.8H96.4l32.4 55.5h32.6Z"/>
    <path fill="#FF6672" d="M170.2 64.3 138 8.8h32.3l32.4 55.5"/>
    <path fill="#00B367" d="M64.2 64.3h32.4l11.6-20.8L92 15.8"/>
    <path fill="#F76900" d="M128.8 64.3 96.4 120h32.4l32.6-55.6"/>
    <path fill="#A31460" d="M202.6 64.3 170.2 120H138l32.3-55.6"/>
  </g>
  <mask id="h" width="64" height="112" x="139" y="8" maskUnits="userSpaceOnUse" style="mask-type:luminance">
    <path fill="#fff" d="M142.3 8.8H168c1.4 0 2.7.7 3.4 1.9l30.1 51.7c.7 1.2.7 2.7 0 3.9l-30.1 51.6a4 4 0 0 1-3.4 2h-25.7c-2 0-3.2-2.2-2.2-4l30.2-51.6L140 12.7c-1-1.8.2-4 2.2-4Z"/>
  </mask>
  <g mask="url(#h)">
    <path fill="#FFD500" d="M161.4 64.3 128.8 8.8H96.4l32.4 55.5h32.6Z"/>
    <path fill="#FF6672" d="M170.3 64.3 137.9 8.8h32.4l32.3 55.5"/>
    <path fill="#F76900" d="M128.8 64.3 96.4 120h32.4l32.6-55.6"/>
    <path fill="#A31460" d="M202.6 64.3 170.3 120h-32.4l32.4-55.6"/>
  </g>
  <path id="i" d="M336.2 65.8a62 62 0 0 0-1.2-13.3 22.2 22.2 0 0 0-12.7-17 39 39 0 0 0-35.7 4.6c-5.8-5.5-13.2-7-20.1-7-9.7-.2-19.6 1-29 3.8v69h16.6V48.3c7-1 18-2.8 21.4 3.9 2 3.3 2.8 8.7 2.8 16.1V106H295V66.4c-.2-5.1-.3-11-2-15.5 7.1-3.8 19.1-6 23.5 1.3 1.8 3.3 2.9 8.7 2.9 16.1V106h17V66h-.1Zm16-16.6c6-1.8 12.2-2.8 18.4-2.8 9.9-.2 15.4 5.8 14.8 14v2.8c-8-1.4-14.8-2.6-23.6-.3-6.9 1.5-12.9 4.7-16 10.7a25 25 0 0 0-.4 21c3.2 6.3 7.6 9 15 11 9.9 2.7 28.2.4 41-1.9V60.6C401 46.4 397 39.3 386 34.8a64.7 64.7 0 0 0-36 1l2.2 13.4Zm11.5 43c-5.4-3.4-4.7-13.9 1.4-16a34.8 34.8 0 0 1 20.7-.9v18.3c-6.9.7-16.4 1.9-22-1.4Zm93.4-56.5a68.2 68.2 0 0 0-43.6 2.4v68h16.6V48.7a43.6 43.6 0 0 1 24.2.7l2.8-13.8Zm35.8 30.7c10-10.4 20-21 29.7-31.8H503c-8.1 9.7-17 18.8-25.6 28V0l-16.6 3v103h16.6V73.1A120.1 120.1 0 0 1 505 106h19.2c-8-15.4-23.8-33.3-31.4-39.6Zm94.4-11.6a32.5 32.5 0 0 0-18-19.3 37 37 0 0 0-27.7 0 31 31 0 0 0-18 19.3 48 48 0 0 0 0 30.7 33.8 33.8 0 0 0 32.3 22.8c4.7 0 9.4-1.1 13.6-3.2 9.4-4 14.8-11.2 18-19.6a47 47 0 0 0-.2-30.7Zm-19 32.5c-6.6 8.9-20 7.7-25.8 0a33.7 33.7 0 0 1 0-34c6.5-8.9 20.8-7.5 25.8 0 5.6 7.3 6.5 24.5 0 34Z"/>
</svg>
