<svg xmlns="http://www.w3.org/2000/svg" viewBox="0 78 347 191">
  <path fill="#fff" d="M72.6 141c1.2-2 1.2-4.6 0-6.6L49.8 95.3a3.5 3.5 0 0 0-6.2 0L.9 170.2a6.6 6.6 0 0 0 0 6.6l51.8 88.8a6.6 6.6 0 0 0 5.8 3.3h44c3.5 0 5.6-3.7 3.8-6.7l-52-88.8ZM114 173.5h48c2.4 0 4.6-1.3 5.8-3.4L183.9 141c1.2-2 1.1-4.5 0-6.6l-22.8-39a3.5 3.5 0 0 0-6.2 0l-17 30.3-26-44.4A6.6 6.6 0 0 0 106.2 78H62.3a4.4 4.4 0 0 0-3.8 6.7l49.8 85.5c1.2 2 3.4 3.3 5.8 3.3ZM221.3 173.4l-51.8 88.8c-1.7 3 .4 6.6 3.8 6.6h44.2c2.3 0 4.5-1.2 5.7-3.3l52-88.7c1.2-2 1.2-4.6 0-6.7l-52-88.8A6.6 6.6 0 0 0 217.5 78H173.3a4.4 4.4 0 0 0-3.8 6.7l51.8 88.7ZM244.5 78h44.1c2.4 0 4.5 1.3 5.7 3.3l51.8 88.8c1.2 2 1.2 4.6 0 6.7l-51.8 88.7a6.6 6.6 0 0 1-5.7 3.3H244.5a4.4 4.4 0 0 1-3.9-6.6l51.8-88.8-51.8-88.7c-1.7-3 .4-6.7 3.9-6.7Z" />
</svg>