<svg id="dark" xmlns="http://www.w3.org/2000/svg" viewBox="0 0 9 6">
  <style>:root{--f:#FFF}@media(prefers-color-scheme:light){#dark:not(:target){--f:#202124}}</style>
  <mask id="a" width="9" height="6" x="0" y=".1" fill="#000" maskUnits="userSpaceOnUse">
    <path fill="#fff" d="M0 .1h9v6H0z"/>
    <path fill-rule="evenodd" d="m1.3 1.1-.3.3 3.5 3.5L8 1.4 7.7 1 4.5 4.3 1.3 1.1Z" clip-rule="evenodd"/>
  </mask>
  <path fill="var(--f)" fill-rule="evenodd" d="m1.3 1.1-.3.3 3.5 3.5L8 1.4 7.7 1 4.5 4.3 1.3 1.1Z" clip-rule="evenodd"/>
  <path fill="var(--f)" d="m1 1.4-.2-.2-.2.2.2.2.2-.2Zm.3-.3.1-.2-.1-.1-.2.1.2.2ZM4.5 5l-.2.2.2.1.2-.1-.2-.2ZM8 1.4l.2.2.2-.2-.2-.2-.2.2ZM7.7 1H8L7.7.8l-.1.1.1.2ZM4.5 4.3l-.2.2.2.2.2-.2-.2-.2ZM1 1.3l.2.3.2-.3-.1-.2L1 1l-.3.3.2.2ZM4.5 5l.2-.2-3.5-3.5-.2.2-.2.2L4.3 5l.2-.2ZM8 1.4l-.2-.2-3.5 3.5.2.2.2.2 3.5-3.5-.2-.2ZM7.7 1l-.1.2.2.3.2-.2.2-.2-.3-.3-.2.2Zm0 0h-.1L4.3 4.2l.2.1.2.2 3.2-3.2-.2-.2ZM4.5 4.3l.2-.1L1.4.9l-.1.2-.2.2 3.2 3.2.2-.2Z" mask="url(#a)"/>
</svg>
