<svg xmlns="http://www.w3.org/2000/svg" viewBox="0 -78 347 347">
  <path fill="#00a1ea" d="m54.3 95.4 52 88.8c1.8 3-.3 6.7-3.8 6.7h-44a6.6 6.6 0 0 1-5.8-3.3L.9 98.8a6.6 6.6 0 0 1 0-6.6l42.7-74.9a3.5 3.5 0 0 1 6.2 0l22.8 39.1c1.2 2 1.2 4.6 0 6.6"/>
  <path fill="#3ecf66" d="M114 95.5h48c2.4 0 4.6-1.3 5.8-3.4L183.9 63c1.2-2 1.1-4.5 0-6.6l-22.8-39a3.5 3.5 0 0 0-6.2 0l-17 30.3-26-44.4a6.6 6.6 0 0 0-5.7-3.3H62.3a4.4 4.4 0 0 0-3.8 6.7l49.8 85.5c1.2 2 3.4 3.3 5.8 3.3Z"/>
  <path fill="#fe9700" d="m221.3 95.4-51.8 88.8c-1.7 3 .4 6.6 3.8 6.6h44.2c2.3 0 4.5-1.2 5.7-3.3l52-88.7c1.2-2 1.2-4.6 0-6.7l-52-88.8a6.6 6.6 0 0 0-5.7-3.3h-44.2a4.4 4.4 0 0 0-3.8 6.7l51.8 88.7Z"/>
  <path fill="#e62a67" d="M244.5 0h44.1c2.4 0 4.5 1.3 5.7 3.3l51.8 88.8c1.2 2 1.2 4.6 0 6.7l-51.8 88.7a6.6 6.6 0 0 1-5.7 3.3h-44.1a4.4 4.4 0 0 1-3.9-6.6l51.8-88.8-51.8-88.7c-1.7-3 .4-6.7 3.9-6.7Z"/>
</svg>