<svg xmlns="http://www.w3.org/2000/svg" viewBox="0 0 48 48">
  <defs>
    <linearGradient id="a" x1="3.2" x2="44.8" y1="15" y2="15" gradientUnits="userSpaceOnUse">
      <stop offset="0" stop-color="#d93025"/>
      <stop offset="1" stop-color="#ea4335"/>
    </linearGradient>
    <linearGradient id="b" x1="20.7" x2="41.5" y1="47.7" y2="11.7" gradientUnits="userSpaceOnUse">
      <stop offset="0" stop-color="#fcc934"/>
      <stop offset="1" stop-color="#fbbc04"/>
    </linearGradient>
    <linearGradient id="c" x1="26.6" x2="5.8" y1="46.5" y2="10.5" gradientUnits="userSpaceOnUse">
      <stop offset="0" stop-color="#1e8e3e"/>
      <stop offset="1" stop-color="#34a853"/>
    </linearGradient>
  </defs>
  <circle cx="24" cy="24" r="12" style="fill:#fff"/>
  <path d="M3.2 36A24 24 0 1 0 12 3.2 24 24 0 0 0 3.2 36Zm31.2-18A12 12 0 1 1 18 13.6 12 12 0 0 1 34.4 18Z" style="fill:none"/>
  <path d="M24 12h20.8a24 24 0 0 0-41.6 0l10.4 18A12 12 0 0 1 24 12Z" style="fill:url(#a)"/>
  <circle cx="24" cy="24" r="9.5" style="fill:#1a73e8"/>
  <path d="M34.4 30 24 48a24 24 0 0 0 20.8-36H24a12 12 0 0 1 10.4 18Z" style="fill:url(#b)"/>
  <path d="M13.6 30 3.2 12A24 24 0 0 0 24 48l10.4-18a12 12 0 0 1-20.8 0Z" style="fill:url(#c)"/>
</svg>
