<svg xmlns="http://www.w3.org/2000/svg" xml:space="preserve" style="fill-rule:evenodd;clip-rule:evenodd;stroke-linejoin:round;stroke-miterlimit:2" viewBox="0 0 401 401">
  <path d="M261.7 245.1c33.8 1.7 69.2-13.5 80.2-43.7 11-30.3 6.7-60.2-32.7-78.1-39.4-18-57.5-39.3-89.4-52.2-20.7-8.4-43.9-3.4-67.6 9.8-64 35.3-121.3 147-94.9 250.5a3.2 3.2 0 0 1-5.4 3 200 200 0 1 1 347.5-119.1A199 199 0 0 1 348 334.5a103.5 103.5 0 0 1-74.1 32.6 72.2 72.2 0 0 1-68.8-91c1.8-6.4 6.2-18.6 12.7-24a76.2 76.2 0 0 1-20.4-13.8c-.8-.9-.7-2.2 0-3 .7-1 1.8-1.3 3-1 6.4 2.3 14.4 4.5 22.8 5.9 11 1.8 24.7 4.2 38.6 4.8Zm-69-160c10.9-.9 20.3 8.3 21.9 20.6 2.2 16.3-3.8 33.2-23.5 33.5-16.8.4-22-16.6-20.8-26.9 1.1-10.2 9.6-26.2 22.5-27.2Z"/>
</svg>
