<svg xmlns="http://www.w3.org/2000/svg" viewBox="-240 -240 480 480">
  <path fill="url(#a)" d="M-130-140h260a10 10 0 0 1 10 10v86c0 7 9 10 13 8s12-10 28-10c22 0 46 19 46 46s-24 46-46 46c-16 0-24-8-28-10s-13 1-13 8v86a10 10 0 0 1-10 10H44c-7 0-10 9-8 13s10 12 10 28c0 22-19 46-46 46s-46-24-46-46c0-16 8-24 10-28s-1-13-8-13h-86a10 10 0 0 1-10-10v-260a10 10 0 0 1 10-10"/>
  <defs>
    <linearGradient id="a" gradientTransform="rotate(70)">
      <stop offset="5%" stop-color="#008ae1"/>
      <stop offset="95%" stop-color="#0073d8"/>
    </linearGradient>
    <clipPath id="b">
      <path d="M-65-41q-46 0-52 5-7 6-2 40 3 23 12 26 13 5 40 5 32 0 36-14t6-30-3-24-37-8M65-41q-32 0-37 8T25-9t6 30 36 14q27 0 40-5 9-3 12-26 5-34-2-40-6-5-52-5">
        <animateTransform attributeName="transform" dur="12s" keyTimes="0; 0.4; 0.98; 0.99; 1" repeatCount="indefinite" type="translate" values="0 0; 0 3; 0 15; 0 -4; 0 0"/>
        <animateTransform additive="sum" attributeName="transform" dur="12s" keyTimes="0; 0.98; 0.99; 1" repeatCount="indefinite" type="rotate" values="0 0 0; 0 0 0; -5 0 0; 0 0 0"/>
      </path>
    </clipPath>
  </defs>
  <g transform="translate(0 -24)">
    <animateTransform additive="sum" attributeName="transform" dur="12s" keyTimes="0; 0.4; 0.98; 0.99; 1" repeatCount="indefinite" type="translate" values="0 0; 0 3; 0 15; 0 -4; 0 0"/>
    <animateTransform additive="sum" attributeName="transform" dur="12s" keyTimes="0; 0.98; 0.99; 1" repeatCount="indefinite" type="rotate" values="0 0 0; 0 0 0; -5 0 0; 0 0 0"/>
    <path fill="#1a3148" d="M0-16q-10 0-11 4-5 30-12 44t-42 14q-42-1-50-6-19-14-19-60 0-5-5-8t-5-5v-8q0-6 5-8 10-3 34-4 63 0 75 2t15 12 5 9l10-1 10 1q2 1 5-9t15-12 75-2q24 1 34 4 5 2 5 8v8q0 2-5 5t-5 8q0 46-19 60-8 5-50 6-35 0-42-14T11-12q-1-4-11-4"/>
    <path fill="#fff" d="M-65-41q-46 0-52 5-7 6-2 40 3 23 12 26 13 5 40 5 32 0 36-14t6-30-3-24-37-8M65-41q-32 0-37 8T25-9t6 30 36 14q27 0 40-5 9-3 12-26 5-34-2-40-6-5-52-5"/>
  </g>
  <g clip-path="url(#b)" transform="translate(0 -24)">
    <g transform="translate(-68)">
      <circle r="32"/>
      <circle cx="-24" cy="-24" r="10" fill="#fff"/>
    </g>
    <g transform="translate(68)">
      <circle r="32"/>
      <circle cx="-24" cy="-24" r="10" fill="#fff"/>
    </g>
  </g>
  <path fill="none" stroke="#000" stroke-linecap="round" stroke-width="6" d="M-26 53a60 60 0 0 0 53 0"/>
</svg>
