<svg id="dark" xmlns="http://www.w3.org/2000/svg" viewBox="0 62 1013 208">
  <path id="f" fill="#00CFFB" d="M72.6 141c1.2-2 1.2-4.6 0-6.6L49.8 95.3a3.5 3.5 0 0 0-6.2 0L.9 170.2a6.6 6.6 0 0 0 0 6.6l51.8 88.8a6.6 6.6 0 0 0 5.8 3.3h44c3.5 0 5.6-3.7 3.8-6.7l-52-88.8"/>
  <path id="g" fill="#7CED64" d="M114 173.5h48c2.4 0 4.6-1.3 5.8-3.4l16.1-29.1c1.2-2 1.1-4.5 0-6.6l-22.8-39a3.5 3.5 0 0 0-6.2 0l-17 30.3-26-44.4a6.6 6.6 0 0 0-5.7-3.3H62.3a4.4 4.4 0 0 0-3.8 6.7l49.8 85.5c1.2 2 3.4 3.3 5.8 3.3"/>
  <path id="h" fill="#FFD100" d="m221.3 173.4-51.8 88.8c-1.7 3 .4 6.6 3.8 6.6h44.2c2.3 0 4.5-1.2 5.7-3.3l52-88.7c1.2-2 1.2-4.6 0-6.7l-52-88.8a6.6 6.6 0 0 0-5.7-3.3h-44.2a4.4 4.4 0 0 0-3.8 6.7l51.8 88.7"/>
  <path id="i" fill="#FF5467" d="M244.5 78h44.1c2.4 0 4.5 1.3 5.7 3.3l51.8 88.8c1.2 2 1.2 4.6 0 6.7l-51.8 88.7a6.6 6.6 0 0 1-5.7 3.3h-44.1a4.4 4.4 0 0 1-3.9-6.6l51.8-88.8-51.8-88.7c-1.7-3 .4-6.7 3.9-6.7"/>
  <use fill="#0073D8" clip-path="url(#a)" href="#b"/>
  <use fill="#00B068" clip-path="url(#c)" href="#b"/>
  <use fill="#FC5C00" clip-path="url(#d)" href="#b"/>
  <use fill="#CC0067" clip-path="url(#e)" href="#b"/>
  <style>:root{--f:#FFF}@media(prefers-color-scheme:light){#dark:not(:target){--f:#202124}}</style>
  <path fill="var(--f)" d="M577 175.9c0-8.1-.7-16-2.2-22.9a38 38 0 0 0-21.8-29.2c-20-8.4-43-3.6-61.2 7.8a49 49 0 0 0-34.5-12c-16.7-.3-33.6 1.8-49.7 6.6v118.3h28.5v-98.7c11.8-1.8 31-4.8 36.7 6.6 3.3 5.7 4.8 15 4.8 27.7v64.4h28.5v-67.7c-.3-8.7-.6-19-3.4-26.5 12.2-6.6 32.7-10.2 40.3 2.1 3 5.7 4.9 15 4.9 27.7v64.4h29V176Zm27.5-28.6a113 113 0 0 1 31.5-4.8c17-.3 26.3 9.9 25.4 24v4.9c-13.6-2.4-25.4-4.6-40.6-.6-11.8 2.7-22 8-27.5 18.3-5.5 9-5.8 25.6-.6 36.1 5.4 10.9 13 15.4 25.7 19 17 4.5 48.4.6 70.2-3.3v-74c-.3-24.5-7.2-36.5-26-44.3-17.9-6-42.7-4-61.8 1.8l3.7 22.9Zm19.7 73.7c-9.4-5.7-8.2-23.7 2.4-27.4a59.8 59.8 0 0 1 35.4-1.5v31.4c-11.8 1.2-28.1 3.3-37.8-2.4Zm160.2-97c-25.2-8-53-3.8-74.8 4.3v116.5H738v-98.1a75 75 0 0 1 41.5 1.2l4.9-23.8Zm61.4 52.8c17.3-17.8 34.2-36.1 51-54.5H863a1104 1104 0 0 1-44 47.9V63l-28.4 4.8v176.7h28.5v-56a206 206 0 0 1 47.5 56.3h33a270.2 270.2 0 0 0-53.9-68Zm162-19.9a56 56 0 0 0-30.8-33.1c-15.5-6.3-33-6-47.6 0-14.8 6-26 18-30.9 33.1a82.5 82.5 0 0 0 0 52.7 58 58 0 0 0 31.8 34.6 57.5 57.5 0 0 0 47-.9 56.5 56.5 0 0 0 30.9-33.7 80.5 80.5 0 0 0-.3-52.7Zm-32.7 55.7C964 228 941 226 931 212.6c-9.7-14.1-11.2-41.8 0-58 11.2-15.4 35.8-13 44.2 0 9.7 12.3 11.2 41.8 0 58"/>
  <defs>
    <clipPath id="a">
      <use href="#f"/>
    </clipPath>
    <clipPath id="c">
      <use href="#g"/>
    </clipPath>
    <clipPath id="d">
      <use href="#h"/>
    </clipPath>
    <clipPath id="e">
      <use href="#i"/>
    </clipPath>
    <path id="b" d="M0 173.4h111.1l26.8-47.7V78H157l51 95.4h139V425H0"/>
  </defs>
</svg>