<svg id="dark" xmlns="http://www.w3.org/2000/svg" viewBox="-240 -240 480 480">
  <style>@media(prefers-reduced-motion:no-preference){.look{animation:look 4s infinite}.spin{animation:spin 4s infinite}.pant{transform-origin:-60px 2px;animation:pant 4s infinite}.blink{animation:blink 3.1s infinite}}@keyframes look{0%,6%,62%,to{transform:none}10%,26%{transform:translateX(-11px)}30%,46%{transform:translate(11px,2px)}50%,58%{transform:translate(-4px,-4px)}}@keyframes spin{0%,64%{transform:none;animation-timing-function:cubic-bezier(.3,0,.2,1)}82%,to{transform:rotate(720deg)}}@keyframes pant{0%,64%,96%,to{transform:none}68%,76%,84%,92%{transform:scaleY(1.3)}72%,80%,88%{transform:scaleY(.85)}}@keyframes blink{0%,94%,to{transform:none}96%{transform:scaleY(.1)}}</style>
  <path d="M-130-140h86c7 0 10-9 8-13s-10-12-10-28c0-22 19-46 46-46s46 24 46 46c0 16-8 24-10 28s1 13 8 13h86a10 10 0 0110 10V130a10 10 0 01-10 10H46c-3 0-5-3-3-6s9-10 9-30c0-21-16-51-52-51s-52 30-52 51c0 20 7 27 9 30s0 6-3 6h-84a10 10 0 01-10-10V44c0-7-9-10-13-8s-12 10-28 10c-22 0-46-19-46-46s24-46 46-46c16 0 24 8 28 10s13-1 13-8v-86a10 10 0 0110-10" fill="url(#a)"></path>
  <defs>
    <linearGradient id="a" gradientTransform="rotate(70)">
      <stop offset="5%" stop-color="#7ced64"/>
      <stop offset="95%" stop-color="#63e165"/>
    </linearGradient>
    <g id="b">
      <circle r="46" fill="white"></circle>
      <g class="look">
        <circle r="34" fill="black"></circle>
        <g transform="translate(12, -12)">
          <path class="spin" d="M-20-6-6-7l6-13L6-7l14 1L9 4l3 14-12-7-12 7 3-14z" fill="white"/>
        </g>
      </g>
    </g>
    <clipPath id="c">
      <ellipse cx="-60" cy="20" rx="22" ry="18"></ellipse>
    </clipPath>
  </defs>
  <g transform="translate(-60, -42)">
    <g class="blink">
      <use href="#b" transform="translate(-54, 0)"></use>
      <use href="#b" transform="translate(54, 0)"></use>
    </g>
  </g>
  <g class="pant">
    <use href="#c" fill="black"></use>
    <rect clip-path="url(#c)" width="48" height="36" x="-82" y="2"></rect>
    <ellipse id="c" cx="-60" cy="20" rx="22" ry="18"></ellipse>
    <path clip-path="url(#c)" d="M-82 34q10-15 22-5 12-10 22 5l-22 13z" fill="#e5fbe0"></path>
  </g>
</svg>
