<svg xmlns="http://www.w3.org/2000/svg" viewBox="-240 -240 480 720">
  <g fill="#fedecc" stroke="#fedecc" stroke-width="5" stroke-linecap="round">
    <path d="M60 130q20 150 -10 300" fill="none"></path>
    <path d="M50 430q3-15 26-12t23 13q0 7-36 6-13-1-13-7"></path>
    <path d="M-60 130q-20 150 10 300" fill="none"></path>
    <path d="M-50 430q-3-15-26-12t-23 13q0 7 36 6 13-1 13-7"></path>
  </g>

  <defs>
    <linearGradient id="a" gradientTransform="rotate(70)">
      <stop offset="5%" stop-color="#fd7900"/>
      <stop offset="95%" stop-color="#fc5c00"/>
    </linearGradient>
  </defs>
  <path fill="url(#a)" d="M-130-140h84c3 0 5 3 3 6s-9 10-9 30c0 21 16 51 52 51s52-30 52-51c0-20-7-27-9-30s0-6 3-6h84a10 10 0 0 1 10 10v86c0 7 9 10 13 8s12-10 28-10c22 0 46 19 46 46s-24 46-46 46c-16 0-24-8-28-10s-13 1-13 8v86a10 10 0 0 1-10 10H46c-3 0-5-3-3-6s9-10 9-30c0-21-16-51-52-51s-52 30-52 51c0 20 7 27 9 30s0 6-3 6h-84a10 10 0 0 1-10-10v-260a10 10 0 0 1 10-10"/>
  <circle cx="15" cy="-32" r="44" fill="#fff"/>
  <circle cx="29" cy="-32" r="30"/>
  <circle cx="11" cy="-56" r="16" fill="#fff"/>
  <circle cx="115" cy="-32" r="44" fill="#fff"/>
  <circle cx="129" cy="-32" r="30"/>
  <circle cx="111" cy="-56" r="16" fill="#fff"/>
  <path fill="#fedecc" d="M-160-102q-5-5 0-10 0-17-2-21t1-23 0-32q-1-3-17-16-3-2-15 11-4 5-4 14c0 6-5 7-8 3q-4-7-3-23 1-8 13-27t46-11 41 15 60 71q9 1 10 9 45 0 51 7t-33 37l-24-3 13 9q-57 29-105 34l-4-5-5 5q-58-2-49-14t34-30"/>
  <g transform="translate(194 -8)">
    <animateTransform additive="sum" attributeName="transform" calcMode="spline" dur="8s" keySplines="0.7 0 0.3 1; 0.4 0 0.6 1" repeatCount="indefinite" type="rotate" values="-2;6;-2"/>
    <path fill="#fedecc" d="M-8 0A1 1 0 0 0 8 0L3-120l-3-3-3 3z"/>
    <path fill="#fc5c00" d="m-20-146 14-1 6-13 6 13 14 1-11 10 3 14-12-7-12 7 3-14z"/>
  </g>
</svg>
