<svg xmlns="http://www.w3.org/2000/svg" viewBox="0 0 512 512">
  <defs>
    <radialGradient id="b" cx="87.4%" cy="-12.9%" r="128%" gradientTransform="rotate(37 .9 .6)">
      <stop offset=".1" stop-color="#ffbd4f"/>
      <stop offset=".3" stop-color="#ff980e"/>
      <stop offset=".5" stop-color="#ff3750"/>
      <stop offset=".8" stop-color="#eb0878"/>
      <stop offset=".9" stop-color="#e50080"/>
    </radialGradient>
    <radialGradient id="c" cx="49%" cy="40%" r="128%" gradientTransform="rotate(35 .5 0)">
      <stop offset=".3" stop-color="#960e18"/>
      <stop offset=".3" stop-color="#b11927" stop-opacity=".7"/>
      <stop offset=".4" stop-color="#db293d" stop-opacity=".3"/>
      <stop offset=".5" stop-color="#f5334b" stop-opacity=".1"/>
      <stop offset=".5" stop-color="#ff3750" stop-opacity="0"/>
    </radialGradient>
    <radialGradient id="d" cx="48%" cy="-12%" r="140%">
      <stop offset=".1" stop-color="#fff44f"/>
      <stop offset=".5" stop-color="#ff980e"/>
    </radialGradient>
    <radialGradient id="e" cx="22.8%" cy="110.1%" r="100%">
      <stop offset=".3" stop-color="#3a8ee6"/>
      <stop offset=".7" stop-color="#9059ff"/>
      <stop offset="1" stop-color="#c139e6"/>
    </radialGradient>
    <radialGradient id="f" cx="52%" cy="33%" r="59%">
      <stop offset=".2" stop-color="#9059ff" stop-opacity="0"/>
      <stop offset="1" stop-color="#6e008b" stop-opacity=".6"/>
    </radialGradient>
    <radialGradient id="g" cx="210%" cy="-100%" r="290%">
      <stop offset=".1" stop-color="#ffe226"/>
      <stop offset=".8" stop-color="#ff7139"/>
    </radialGradient>
    <radialGradient id="h" cx="84%" cy="-41%" r="180%">
      <stop offset=".1" stop-color="#fff44f"/>
      <stop offset=".5" stop-color="#ff980e"/>
      <stop offset=".7" stop-color="#ff3647"/>
      <stop offset=".9" stop-color="#e31587"/>
    </radialGradient>
    <radialGradient id="i" cx="16.1%" cy="-18.6%" r="348.8%" gradientTransform="matrix(0 0 -1 0 0 -.3)">
      <stop offset="0" stop-color="#fff44f"/>
      <stop offset=".3" stop-color="#ff980e"/>
      <stop offset=".6" stop-color="#ff3647"/>
      <stop offset=".7" stop-color="#e31587"/>
    </radialGradient>
    <radialGradient id="j" cx="18.9%" cy="-42.5%" r="238.4%">
      <stop offset=".1" stop-color="#fff44f"/>
      <stop offset=".5" stop-color="#ff980e"/>
      <stop offset=".7" stop-color="#ff3647"/>
      <stop offset=".9" stop-color="#e31587"/>
    </radialGradient>
    <radialGradient id="k" cx="159.3%" cy="-44.7%" r="313.1%">
      <stop offset=".1" stop-color="#fff44f"/>
      <stop offset=".6" stop-color="#ff980e"/>
    </radialGradient>
    <linearGradient id="a" x1="87.3%" x2="9.4%" y1="15.5%" y2="93.1%">
      <stop offset=".1" stop-color="#fff44f"/>
      <stop offset=".4" stop-color="#ff980e"/>
      <stop offset=".5" stop-color="#ff3647"/>
      <stop offset=".7" stop-color="#e31587"/>
    </linearGradient>
    <linearGradient id="l" x1="80%" x2="18%" y1="14%" y2="84%">
      <stop offset=".2" stop-color="#fff44f" stop-opacity=".8"/>
      <stop offset=".6" stop-color="#fff44f" stop-opacity="0"/>
    </linearGradient>
  </defs>
  <path fill="url(#a)" d="M478.7 166.4c-10.4-25.2-31.6-52.3-48.2-60.9a249.8 249.8 0 0 1 24.3 73v.4c-27-67.8-73.2-95-110.8-154.5l-5.7-9.2a73.7 73.7 0 0 1-2.6-5A43.7 43.7 0 0 1 332 .7a.6.6 0 0 0-.5-.7.8.8 0 0 0-.5 0l-.1.1-.2.1.1-.1c-60.4 35.3-80.8 100.7-82.7 133.4A120.2 120.2 0 0 0 182 159a71.4 71.4 0 0 0-6.2-4.7 111.3 111.3 0 0 1-.7-58.7 178 178 0 0 0-57.8 44.7h-.1c-9.6-12-8.9-51.9-8.3-60.2-.2-.5-7.1 3.6-8 4.3a175 175 0 0 0-23.5 20 210.5 210.5 0 0 0-22.5 27 202.8 202.8 0 0 0-32.2 72.8l-.4 1.6a397 397 0 0 0-2.3 15v.5a229 229 0 0 0-4 33.2v1.2a240.3 240.3 0 0 0 477.2 40.7l1.1-9.3a247 247 0 0 0-15.6-120.7zm-277 188 3.4 1.7h.1a126.2 126.2 0 0 1-3.5-1.7zm55-144.9zM455 179v-.2.3z"/>
  <path fill="url(#b)" d="M478.7 166.4c-10.4-25.2-31.6-52.3-48.2-60.9a249.8 249.8 0 0 1 24.3 73v.2l.1.3c22.7 61.4 10.3 124-7.5 162.1C420 400.2 353.2 460.8 249 457.8 136 454.7 36.8 371 18.2 261.4c-3.4-17.3 0-26 1.7-40-2 10.7-2.8 13.9-3.9 33v1.3a240.3 240.3 0 0 0 477.2 40.7l1.1-9.3a247 247 0 0 0-15.6-120.7z"/>
  <path fill="url(#c)" d="M478.7 166.4c-10.4-25.2-31.6-52.3-48.2-60.9a249.8 249.8 0 0 1 24.3 73v.2l.1.3c22.7 61.4 10.3 124-7.5 162.1C420 400.2 353.2 460.8 249 457.8 136 454.7 36.8 371 18.2 261.4c-3.4-17.3 0-26 1.7-40-2 10.7-2.8 13.9-3.9 33v1.3a240.3 240.3 0 0 0 477.2 40.7l1.1-9.3a247 247 0 0 0-15.6-120.7z"/>
  <path fill="url(#d)" d="m362 194.6 1.4 1.1a130.7 130.7 0 0 0-22.3-29.1C266.4 91.9 321.5 4.6 330.8.2l.1-.1c-60.4 35.3-80.8 100.7-82.7 133.4a121.3 121.3 0 0 1 113.7 61z"/>
  <path fill="url(#e)" d="M256.8 209.5c-.4 6-21.5 26.6-29 26.6-68.3 0-79.4 41.3-79.4 41.3 3 34.9 27.3 63.5 56.7 78.7l4 2a132.8 132.8 0 0 0 7 2.8 106.7 106.7 0 0 0 31.3 6c119.8 5.7 143-143.2 56.6-186.4a83 83 0 0 1 58 14.1 121.3 121.3 0 0 0-105.4-61.5c-2.8 0-5.6.2-8.4.4A120.2 120.2 0 0 0 182 159c3.7 3.1 7.8 7.3 16.6 15.9 16.3 16 58 32.7 58.2 34.6z"/>
  <path fill="url(#f)" d="M256.8 209.5c-.4 6-21.5 26.6-29 26.6-68.3 0-79.4 41.3-79.4 41.3 3 34.9 27.3 63.5 56.7 78.7l4 2a132.8 132.8 0 0 0 7 2.8 106.7 106.7 0 0 0 31.3 6c119.8 5.7 143-143.2 56.6-186.4a83 83 0 0 1 58 14.1 121.3 121.3 0 0 0-105.4-61.5c-2.8 0-5.6.2-8.4.4A120.2 120.2 0 0 0 182 159c3.7 3.1 7.8 7.3 16.6 15.9 16.3 16 58 32.7 58.2 34.6z"/>
  <path fill="url(#g)" d="M170.8 151a244 244 0 0 1 5 3.3 111.3 111.3 0 0 1-.7-58.7 178 178 0 0 0-57.8 44.7c1.1 0 36-.7 53.5 10.7z"/>
  <path fill="url(#h)" d="M18.2 261.4C36.8 371 136.1 454.7 249 457.8c104.3 3 171-57.6 198.5-116.7C465.2 303 477.6 240.4 455 179v-.5.4c8.5 55.6-19.8 109.6-64 146l-.2.3c-86.2 70.2-168.8 42.4-185.5 31a144.1 144.1 0 0 1-3.5-1.8c-50.3-24-71-69.8-66.6-109-42.4 0-57-35.9-57-35.9s38.2-27.2 88.4-3.5c46.6 21.9 90.3 3.5 90.3 3.5-.1-2-42-18.6-58.3-34.6-8.7-8.6-12.8-12.8-16.5-15.9a71.4 71.4 0 0 0-6.2-4.7 283 283 0 0 0-5-3.3c-17.5-11.4-52.4-10.7-53.5-10.7h-.1c-9.6-12-8.9-51.9-8.3-60.2-.2-.5-7.1 3.6-8 4.3a175 175 0 0 0-23.5 20 210.5 210.5 0 0 0-22.5 27 202.8 202.8 0 0 0-32.2 72.8c-.2.5-8.7 37.9-4.5 57.2z"/>
  <path fill="url(#i)" d="M341.1 166.6a130.7 130.7 0 0 1 22.3 29.1c1.3 1 2.6 2 3.6 3 54.5 50.2 26 121.2 23.8 126.2 44.3-36.4 72.6-90.4 64-146-27-67.8-73.2-95-110.8-154.5l-5.7-9.2a73.7 73.7 0 0 1-2.6-5A43.7 43.7 0 0 1 332 .7a.6.6 0 0 0-.5-.7.8.8 0 0 0-.5 0l-.1.1-.2.1c-9.3 4.4-64.4 91.7 10.3 166.4z"/>
  <path fill="url(#j)" d="M367 198.7c-1-1-2.3-2-3.6-3l-1.5-1.1a83 83 0 0 0-58-14c86.5 43.1 63.3 192-56.5 186.3a106.7 106.7 0 0 1-31.2-6 134.5 134.5 0 0 1-7.1-2.9c-1.4-.6-2.7-1.2-4-2l.1.2c16.7 11.4 99.3 39.2 185.5-31l.1-.3c2.2-5 30.7-76-23.8-126.2z"/>
  <path fill="url(#k)" d="M148.4 277.4s11.1-41.3 79.5-41.3c7.4 0 28.5-20.6 28.9-26.6S213 228 166.5 206c-50.2-23.7-88.3 3.5-88.3 3.5s14.5 35.8 57 35.8c-4.5 39.3 16.2 85.1 66.5 109.1l3.3 1.7c-29.3-15.2-53.5-43.8-56.6-78.7z"/>
  <path fill="url(#l)" d="M478.7 166.4c-10.4-25.2-31.6-52.3-48.2-60.9a249.8 249.8 0 0 1 24.3 73v.4c-27-67.8-73.2-95-110.8-154.5l-5.7-9.2a73.7 73.7 0 0 1-2.6-5A43.7 43.7 0 0 1 332 .7a.6.6 0 0 0-.5-.7.8.8 0 0 0-.5 0l-.1.1-.2.1.1-.1c-60.4 35.3-80.8 100.7-82.7 133.4 2.8-.1 5.6-.4 8.4-.4 45 0 84.3 24.8 105.3 61.5a83 83 0 0 0-58-14c86.5 43.1 63.3 192-56.5 186.3a106.7 106.7 0 0 1-31.2-6 134.5 134.5 0 0 1-7.1-2.9c-1.4-.6-2.7-1.2-4-2l.1.2a144.1 144.1 0 0 1-3.5-1.8l3.3 1.7c-29.3-15.2-53.5-43.8-56.6-78.7 0 0 11.1-41.3 79.5-41.3 7.4 0 28.5-20.6 28.9-26.6-.1-2-42-18.6-58.3-34.6-8.7-8.6-12.8-12.8-16.5-15.9a71.4 71.4 0 0 0-6.2-4.7 111.3 111.3 0 0 1-.7-58.7 178 178 0 0 0-57.8 44.7h-.1c-9.6-12-8.9-51.9-8.3-60.2-.2-.5-7.2 3.6-8 4.3a175 175 0 0 0-23.6 20 210.5 210.5 0 0 0-22.4 27 202.8 202.8 0 0 0-32.2 72.8l-.4 1.6c-.4 2.1-2.4 12.8-2.7 15.2 0 .1 0-.2 0 0a279.6 279.6 0 0 0-3.6 33.5v1.2a240.3 240.3 0 0 0 477.2 40.7l1.1-9.3a247 247 0 0 0-15.6-120.7zM455 178.7v.3-.3z"/>
</svg>
