<svg xmlns="http://www.w3.org/2000/svg" width="272" height="314" viewBox="0 0 2724 3144"><linearGradient id="a" x1="288" x2="2435" y1="498" y2="2646" gradientUnits="userSpaceOnUse"><stop offset=".2" stop-color="#0075c9"/><stop offset=".7" stop-color="#80bc00"/><stop offset="1" stop-color="#fde021"/></linearGradient><path fill="url(#a)" d="M1361 0L0 786v1572l1362 786 1362-785V786zm-134 201L898 770H241zM844 864l-154 267-462-267zm-120 394l543 314-543 314-181-314zm-80-46l-154 267-309-534zm-537-209l329 569-329 569zm382 663l154 267-462 267zm201 347l154 267H228zm-449 361h657l329 569zm1074 534l-308-534h308zm0-628H952l-181-314 543-314v628zm0-789l-543-314 181-314h362zm0-721h-308l308-534zm764 442l462-267-308 534zm100 360l-181 314-543-314 543-314zm-147-441l-154-267h616zm449-361h-657l-328-569zM1408 236l308 534h-308zm0 628h362l181 314-543 314zm0 789l543 314-181 313h-362zm0 721h308l-308 534zm88 569l328-569h657zm382-663l154-267 462 267zm201-348l154-267 308 534zm537 209l-329-569 329-569z"/></svg>