<svg width="73" height="23" viewBox="0 0 73 23" fill="none" xmlns="http://www.w3.org/2000/svg">
  <path
    d="M20.95 13.4951C20.95 12.5232 20.8775 11.5874 20.6964 10.7604C20.3704 9.14125 19.5385 7.91694 18.0909 7.26977C15.7026 6.26159 12.9509 6.83752 10.78 8.20551C9.58591 7.08987 8.06579 6.76628 6.65434 6.76628C4.66333 6.73006 2.63731 6.98241 0.71875 7.55834V21.7006H4.12121V9.89708C5.53266 9.68095 7.81345 9.32115 8.50046 10.6891C8.8989 11.3725 9.08001 12.4882 9.08001 13.9998V21.7006H12.4825V13.6038C12.4463 12.5606 12.41 11.3363 12.084 10.4368C13.5317 9.64473 15.9924 9.21369 16.8979 10.6891C17.2602 11.3725 17.4775 12.4882 17.4775 13.9998V21.7006H20.9524V13.4963L20.95 13.4951ZM24.2426 10.0758C25.4729 9.71597 26.7395 9.49984 28.006 9.49984C30.0333 9.46362 31.155 10.6879 31.0463 12.3783V12.9542C29.4175 12.6669 28.0061 12.4145 26.1962 12.8818C24.7847 13.2054 23.5544 13.8537 22.9024 15.0768C22.2504 16.1563 22.2141 18.1352 22.8299 19.3945C23.4819 20.6901 24.3863 21.2298 25.9064 21.662C27.9336 22.2017 31.6971 21.7345 34.3027 21.266V12.4133C34.2664 9.49864 33.4345 8.05941 31.19 7.12368C29.0541 6.40406 26.0863 6.65641 23.8067 7.3398L24.2414 10.0746L24.2426 10.0758ZM26.5958 18.8922C25.4741 18.2088 25.619 16.0488 26.8856 15.6178C28.2608 15.0418 29.8534 15.1505 31.1199 15.4379V19.1808C29.7085 19.3245 27.7537 19.5768 26.5958 18.8934V18.8922ZM45.7416 7.30479C42.7376 6.33283 39.4075 6.83752 36.802 7.80827V21.7345H40.2044V10.0033C42.0143 9.57108 43.3896 9.64353 45.1632 10.147L45.7428 7.30479H45.7416ZM53.0886 13.6026C55.1509 11.48 57.1781 9.28493 59.1691 7.08866H55.1509C53.4859 9.06759 51.676 10.9391 49.9035 12.8105V0L46.501 0.575931V21.6994H49.9035V15.0056C52.0756 16.7334 54.2827 19.3957 55.5855 21.7345H59.5301C57.9013 18.5674 54.6438 14.8969 53.0874 13.6014L53.0886 13.6026ZM72.4517 11.2276C71.7997 9.42861 70.497 7.98938 68.7607 7.26977C66.9146 6.51394 64.8161 6.55016 63.0787 7.26977C61.305 7.98938 59.966 9.42861 59.3864 11.2276C58.6982 13.279 58.6982 15.4741 59.3864 17.5254C60.0022 19.3607 61.3774 20.8724 63.1873 21.6632C64.0772 22.0411 65.0371 22.2259 66.0042 22.2078C66.9713 22.1896 67.924 21.9663 68.7981 21.5558C70.7167 20.7287 71.8384 19.2532 72.4904 17.5254C73.1786 15.4741 73.1786 13.279 72.4542 11.2276H72.4517ZM68.5434 17.8853C67.2044 19.7205 64.4539 19.4682 63.2598 17.8853C62.1019 16.1937 61.9208 12.883 63.2598 10.9403C64.5988 9.10502 67.5304 9.39239 68.5434 10.9403C69.7013 12.4157 69.8824 15.9425 68.5434 17.8853Z"
    fill="#202124" />
</svg>